<svg xmlns="http://www.w3.org/2000/svg" viewBox="0.0714285671710968 10.516666412353516 37.72856903076172 38.36666488647461" data-asc="0.935" width="37.72856903076172" height="38.36666488647461"><defs/><g fill="#ffffff"><g transform="translate(0, 0)"><path d="M20.30 48.30Q20.30 48.30 20.30 48.30Q20.30 48.30 20.30 48.30L19.45 48.55Q19.35 48.60 19.27 48.55Q19.20 48.50 19.10 48.45Q19.10 48.45 19.05 48.45Q19.05 48.45 19.05 48.45L18.25 48.70Q18.10 48.75 18 48.65L17.55 48.85Q17.35 48.95 17.25 48.75Q17.25 48.75 17.25 48.70Q17.15 48.70 17.10 48.55Q17.05 48.35 17.25 48.30L18.25 47.95Q17.90 47.95 17.65 47.95L16.95 48.30Q16.95 48.30 16.90 48.30Q16.90 48.30 16.90 48.30L16.05 48.65Q15.85 48.70 15.75 48.50Q15.65 48.30 15.90 48.20L16.55 48L15.85 48.15L15.10 48.45Q14.90 48.50 14.80 48.30Q14.80 48.30 14.80 48.30L13.90 48.65Q13.70 48.75 13.60 48.55Q13.55 48.35 13.75 48.25L14.60 47.90L15.10 47.65Q15.00 47.65 14.85 47.63Q14.70 47.60 14.50 47.60L13.65 47.90L12.95 48.20Q12.70 48.25 12.65 48.05Q12.55 47.85 12.75 47.75L13.50 47.50L13.80 47.35Q13.80 47.35 13.75 47.35L13.40 47.50L12.55 47.80L11.75 48.10Q11.55 48.15 11.45 47.95Q11.40 47.80 11.55 47.70L10.95 47.90Q10.75 47.95 10.65 47.75Q10.60 47.55 10.80 47.45L11.60 47.20L12.35 46.80Q12.35 46.80 12.40 46.80Q12.40 46.80 12.40 46.80Q12.35 46.75 12.30 46.75L11.55 47.10Q11.55 47.10 11.55 47.10Q11.55 47.10 11.55 47.10L10.75 47.35L10 47.70Q9.80 47.80 9.70 47.60Q9.60 47.40 9.80 47.30L10.55 46.95Q10.55 46.95 10.55 46.95Q10.60 46.95 10.60 46.95L11.40 46.65L11.80 46.50Q11.65 46.40 11.53 46.33Q11.40 46.25 11.25 46.20L10.40 46.55Q10.40 46.55 10.35 46.55Q10.35 46.55 10.35 46.55L9.50 46.75L8.65 47.15Q8.45 47.25 8.35 47.05Q8.25 46.80 8.45 46.75L9.35 46.35Q9.35 46.35 9.35 46.35Q9.35 46.35 9.35 46.35L10.25 46.10L10.80 45.90Q10.65 45.85 10.40 45.90L9.65 46.15L8.85 46.50L8.15 46.85Q7.95 46.90 7.85 46.70Q7.75 46.50 7.95 46.40L8.65 46.10Q8.65 46.10 8.65 46.10Q8.70 46.10 8.70 46.10L9.50 45.75L10.15 45.50Q9.95 45.40 9.80 45.30L9.40 45.45L8.60 45.80Q8.60 45.80 8.60 45.80Q8.60 45.80 8.60 45.80L7.80 46L6.95 46.40Q6.75 46.50 6.65 46.30Q6.55 46.10 6.75 46L7.65 45.60Q7.65 45.60 7.65 45.60Q7.70 45.60 7.70 45.60L8.45 45.35L9.35 45Q9.10 44.85 8.90 44.65L8.60 44.75L7.85 45L7.05 45.25L6.30 45.55Q6.10 45.65 6.00 45.45Q5.95 45.20 6.15 45.15L6.90 44.85Q6.90 44.85 6.90 44.85Q6.90 44.85 6.90 44.85L7.70 44.55L8.45 44.35Q8.25 44.20 8.05 44.05L7.65 44.15L6.80 44.50L6.10 44.75Q6.10 44.75 6.10 44.75Q6.10 44.75 6.10 44.75L5.20 45.05Q5 45.10 4.95 44.90Q4.85 44.70 5.10 44.60L5.95 44.35L6.65 44.05L7.50 43.75Q7.50 43.75 7.50 43.70Q7.50 43.70 7.65 43.70Q7.45 43.55 7.30 43.40L7.00 43.45L6.30 43.80Q6.30 43.80 6.30 43.80Q6.30 43.80 6.30 43.80L5.55 44.10Q5.55 44.10 5.55 44.10Q5.55 44.10 5.55 44.10L4.85 44.30Q4.60 44.40 4.55 44.15Q4.50 43.95 4.70 43.90L5.40 43.65L6.10 43.40L6.85 43.05Q6.85 43.05 6.85 43.05Q6.85 43.05 6.90 43.05Q6.85 42.95 6.75 42.90Q6.75 42.90 6.75 42.90Q6.75 42.90 6.75 42.90Q6.75 42.90 6.75 42.90Q6.75 42.90 6.75 42.90Q6.65 42.80 6.55 42.70L6.25 42.80L5.45 43.15Q5.45 43.15 5.45 43.15Q5.45 43.15 5.45 43.15L4.65 43.40L3.85 43.60Q3.65 43.70 3.55 43.45Q3.50 43.25 3.75 43.20L4.55 42.95L5.30 42.75L6.25 42.30Q6.10 42.10 5.95 41.90L5.65 42.05Q5.65 42.05 5.65 42.05Q5.60 42.05 5.60 42.05L4.75 42.35L3.90 42.75L3.05 43.05Q2.85 43.15 2.75 42.95Q2.70 42.70 2.90 42.65L3.70 42.30L4.60 41.95Q4.60 41.95 4.60 41.90Q4.60 41.90 4.60 41.90L5.70 41.50Q5.55 41.25 5.40 41L4.90 41.20Q4.90 41.20 4.90 41.20Q4.90 41.20 4.90 41.20L4.10 41.45L3.30 41.65L2.60 42Q2.40 42.10 2.30 41.90Q2.20 41.70 2.40 41.60L3.10 41.25Q3.10 41.25 3.15 41.25Q3.15 41.25 3.15 41.25L4 41L4.75 40.80L5.20 40.55Q5.10 40.30 5 40.05L4.50 40.30Q4.50 40.30 4.50 40.30Q4.50 40.30 4.50 40.30L3.70 40.55L2.95 40.95Q2.95 40.95 2.95 40.95Q2.95 40.95 2.95 40.95Q2.95 40.95 2.95 40.95L2.15 41.30Q1.95 41.35 1.90 41.15Q1.80 40.95 2 40.85L2.75 40.55L3.55 40.15Q3.55 40.15 3.55 40.15Q3.55 40.15 3.55 40.15L4.30 39.90L4.80 39.65Q4.70 39.35 4.60 39.05L3.95 39.35L3.10 39.70L2.40 40.10Q2.40 40.10 2.35 40.10Q2.35 40.10 2.35 40.10L1.60 40.35Q1.35 40.40 1.30 40.20Q1.25 40 1.45 39.90L2.20 39.70L2.90 39.30Q2.90 39.30 2.90 39.30Q2.90 39.30 2.90 39.30L3.80 38.95L4.45 38.65Q4.35 38.35 4.25 38.05L3.75 38.20L3 38.60Q3 38.60 3 38.60Q3 38.60 3 38.60L2.20 38.85L1.35 39.20Q1.15 39.30 1.05 39.10Q0.95 38.90 1.15 38.80L2.05 38.40Q2.05 38.40 2.05 38.40Q2.10 38.40 2.10 38.40L2.85 38.20L3.60 37.80Q3.60 37.80 3.60 37.80Q3.60 37.80 3.60 37.80L4.15 37.60Q4.05 37.40 3.95 37.05L3.45 37.20L2.65 37.50L1.90 37.85L1.20 38.25Q1 38.35 0.90 38.15Q0.80 37.95 1 37.85L1.70 37.45L2.45 37.10Q2.45 37.10 2.45 37.10Q2.45 37.05 2.45 37.05L3.30 36.80L3.85 36.60Q3.75 36.30 3.70 36.10L3.30 36.25L2.50 36.60Q2.45 36.60 2.45 36.60Q2.45 36.65 2.45 36.65L1.60 36.85L0.80 37.15Q0.60 37.20 0.50 37Q0.45 36.80 0.65 36.70L1.45 36.45Q1.45 36.45 1.45 36.45Q1.45 36.45 1.45 36.45L2.30 36.20L3.10 35.85Q3.10 35.85 3.10 35.80Q3.15 35.80 3.15 35.80L3.55 35.65Q3.50 35.40 3.45 35.10L3 35.30L2.15 35.65L1.35 35.90Q1.35 35.90 1.35 35.95Q1.35 35.95 1.35 35.95L0.50 36.15Q0.30 36.20 0.25 36Q0.20 35.80 0.40 35.75L1.20 35.50L1.95 35.20L2.85 34.90L3.35 34.65Q3.30 34.30 3.10 34.20Q3.10 34.20 3.10 34.20Q3.05 34.25 3.05 34.25L2.30 34.45L1.50 34.80Q1.50 34.80 1.45 34.80Q1.45 34.80 1.45 34.80L0.65 35Q0.40 35.10 0.35 34.85Q0.30 34.65 0.50 34.60L1.35 34.35L2.15 34.05Q2.15 34.05 2.15 34.05Q2.15 34.05 2.15 34.05L2.90 33.80L3.25 33.65Q3.20 33.30 3.20 32.90L2.90 32.95L2.20 33.35L1.45 33.70Q1.45 33.70 1.45 33.70Q1.45 33.70 1.45 33.70L0.55 33.95Q0.35 34.05 0.30 33.80Q0.20 33.60 0.40 33.55L1.30 33.25L2 32.95L2.70 32.55Q2.70 32.55 2.75 32.55Q2.75 32.55 2.75 32.55L3.15 32.45Q3.15 32.05 2.95 31.95Q2.95 31.95 2.95 31.95Q2.95 31.95 2.95 31.95L2.15 32.15L1.35 32.45L0.55 32.70Q0.35 32.80 0.25 32.60Q0.20 32.35 0.40 32.30L1.20 32L2 31.75Q2 31.75 2 31.75Q2 31.75 2 31.75L2.80 31.50L3.15 31.40Q3.15 31.20 3.13 31.05Q3.10 30.90 2.95 30.80L2.10 31L1.25 31.35L0.35 31.65Q0.15 31.70 0.10 31.50Q0 31.25 0.25 31.20L1.10 30.95L1.90 30.60Q1.90 30.60 1.95 30.60Q1.95 30.60 1.95 30.60L2.80 30.35L3.10 30.25Q3.10 30.10 3.05 29.95Q3 29.80 2.85 29.70L1.95 29.95L1.20 30.25Q1.20 30.25 1.20 30.25Q1.20 30.25 1.20 30.25L0.45 30.50Q0.25 30.55 0.20 30.35Q0.10 30.15 0.35 30.05L1.05 29.85L1.80 29.50Q1.80 29.50 1.85 29.50Q1.85 29.50 1.85 29.50L2.70 29.25L3 29.20Q2.95 28.85 2.90 28.70L2.15 29.05Q2.15 29.05 2.15 29.05Q2.15 29.05 2.15 29.05L1.30 29.30L0.55 29.65Q0.35 29.75 0.25 29.50Q0.15 29.30 0.35 29.25L1.15 28.90Q1.15 28.90 1.15 28.90Q1.15 28.90 1.15 28.90L1.95 28.60L2.90 28.20Q2.90 27.90 2.85 27.70L2.25 27.95L1.45 28.20L0.75 28.45Q0.50 28.50 0.45 28.30Q0.40 28.10 0.60 28.05L1.30 27.80L2.10 27.50L2.80 27.25Q2.80 26.95 2.75 26.65L2.25 26.90L1.55 27.20L0.85 27.50Q0.60 27.60 0.55 27.40Q0.45 27.20 0.65 27.10L1.40 26.75L2.10 26.50L2.75 26.20Q2.70 25.90 2.70 25.65L2.30 25.85L1.45 26.25Q1.45 26.25 1.40 26.25Q1.40 26.25 1.40 26.25L0.60 26.45Q0.35 26.55 0.30 26.30Q0.25 26.10 0.45 26.05L1.25 25.80L2.10 25.45L2.70 25.15Q2.70 24.80 2.70 24.45L2.45 24.55L1.55 24.85L0.80 25.20Q0.60 25.30 0.50 25.10Q0.40 24.90 0.60 24.80L1.40 24.45Q1.40 24.45 1.40 24.40Q1.40 24.40 1.40 24.40L2.30 24.15L2.75 23.95Q2.75 23.95 2.75 23.90Q2.75 23.70 2.80 23.45L2.35 23.60L1.45 24L0.60 24.40Q0.40 24.45 0.30 24.25Q0.20 24.05 0.40 23.95L1.30 23.60L2.15 23.20L2.85 22.90Q2.90 22.60 2.95 22.30L2.50 22.45L1.75 22.75L0.95 23.15Q0.75 23.25 0.65 23.05Q0.55 22.85 0.75 22.75L1.60 22.35L2.30 22Q2.30 22 2.35 22Q2.35 22 2.35 22L3.05 21.80Q3.15 21.55 3.05 21.45L2.30 21.85L1.40 22.25Q1.20 22.30 1.10 22.10Q1.05 21.90 1.25 21.80L2.10 21.45L2.85 21.05Q2.85 21.05 2.90 21.05Q2.90 21.05 2.90 21.05L3.30 20.90Q3.40 20.65 3.30 20.60Q3.30 20.60 3.30 20.60Q3.30 20.60 3.30 20.60L2.55 20.80L1.80 21.15Q1.60 21.25 1.50 21Q1.40 20.80 1.65 20.75L2.40 20.40Q2.40 20.40 2.40 20.40Q2.45 20.40 2.45 20.40L3.15 20.15L3.65 19.95Q3.65 19.85 3.70 19.75L2.95 20.05L2.20 20.30Q2 20.35 1.90 20.15Q1.85 19.90 2.05 19.85L2.80 19.60L3.60 19.30L3.95 19.15Q4.05 19 4.10 18.85L3.50 19L2.75 19.25Q2.50 19.30 2.45 19.10Q2.40 18.90 2.60 18.80L3.40 18.60L4.15 18.35L4.45 18.25Q4.50 18.15 4.60 18L4.05 18.20L3.35 18.40Q3.10 18.50 3.05 18.25Q3 18.05 3.20 18L3.90 17.75L4.55 17.55L3.80 17.80Q3.60 17.85 3.50 17.65Q3.45 17.40 3.65 17.35L4.25 17.15Q4.20 17.15 4.20 17.15Q4.10 16.95 4.30 16.85L5.05 16.50L5.80 16.15L6.30 15.95Q6.40 15.85 6.50 15.75L5.80 16.10L5.05 16.40Q4.85 16.50 4.75 16.30Q4.65 16.10 4.85 16L5.85 15.60Q5.90 15.50 5.95 15.50L6.70 15.20L7.35 14.95Q7.45 14.85 7.45 14.80L6.65 15.20Q6.45 15.30 6.35 15.10Q6.25 14.90 6.45 14.80L7.15 14.45Q7.15 14.25 7.35 14.20L8.20 14L8.85 13.60Q8.85 13.60 8.90 13.60Q8.95 13.60 8.95 13.60Q9.25 13.35 9.55 13.15Q9.55 13.15 9.60 13.15Q9.60 13.10 9.60 13.10Q10.50 12.60 11.48 12.23Q12.45 11.85 13.45 11.55Q14.95 10.85 17.10 10.65Q19.25 10.45 20.90 10.55Q20.90 10.55 20.90 10.55Q20.90 10.55 20.90 10.55Q20.90 10.55 20.90 10.55Q20.90 10.55 20.90 10.55Q21.20 10.55 21.52 10.55Q21.85 10.55 22.15 10.55Q23.60 10.60 25.13 10.70Q26.65 10.80 27.90 11.40Q27.90 11.40 28 11.50Q28.10 11.55 28.10 11.55Q30.40 13.85 32.68 16.40Q34.95 18.95 36.95 21.50Q36.95 21.50 37 21.60Q37.05 21.65 37.05 21.65Q37.65 23 37.73 24.75Q37.80 26.50 37.80 28.20Q37.75 28.75 37.75 29.27Q37.75 29.80 37.80 30.30Q37.80 30.30 37.80 30.30Q37.80 30.30 37.80 30.30Q37.80 31.30 37.75 32.85Q37.70 34.40 37.48 36.10Q37.25 37.80 36.83 39.20Q36.40 40.60 35.65 41.35Q34.05 42.95 32.02 44.30Q30 45.65 28.10 46.85Q28.10 46.85 28.05 46.85Q28.05 46.90 28.05 46.90Q27.15 47.35 25.98 47.60Q24.80 47.85 23.45 48Q23.45 48 23.45 48Q23.45 48 23.45 48L22.60 48.30Q22.40 48.35 22.35 48.15Q22.30 48.05 22.35 47.95Q22.20 48 22.05 48L21.55 48.10Q21.45 48.15 21.38 48.13Q21.30 48.10 21.15 48.05Q21.15 48.05 21.15 48.05Q21.15 48.10 21.15 48.10L20.30 48.30M15.05 46.40Q15.10 46.40 15.10 46.45Q16.10 46.60 17.13 46.67Q18.15 46.75 19.10 46.85L20.50 46.85Q22.05 46.80 24.07 46.67Q26.10 46.55 27.45 45.85Q29.30 44.65 31.27 43.35Q33.25 42.05 34.80 40.50Q35.40 39.90 35.77 38.58Q36.15 37.25 36.33 35.67Q36.50 34.10 36.55 32.65Q36.60 31.20 36.60 30.35Q36.55 29.85 36.58 29.32Q36.60 28.80 36.60 28.25Q36.60 26.65 36.55 25.02Q36.50 23.40 35.95 22.20Q34 19.70 31.77 17.20Q29.55 14.70 27.30 12.45Q26.20 11.95 24.82 11.85Q23.45 11.75 22.15 11.75Q21.80 11.75 21.48 11.75Q21.15 11.75 20.85 11.75Q19.35 11.65 17.30 11.82Q15.25 12 13.90 12.65Q13.90 12.65 13.85 12.65Q13.85 12.65 13.85 12.65Q12.90 12.95 12.00 13.30Q11.10 13.65 10.25 14.15Q7.65 16 5.80 18.40Q5.80 18.40 5.80 18.40Q5.80 18.40 5.80 18.40Q5.35 19 5 19.75Q5 19.90 4.90 20Q4.75 20.30 4.65 20.65Q4.65 20.65 4.65 20.70Q4.70 20.85 4.55 20.95Q4.45 21.25 4.35 21.60Q4.35 21.60 4.35 21.65Q4.45 21.80 4.30 21.90Q4.20 22.25 4.15 22.55Q4.15 22.60 4.15 22.60Q4.25 22.80 4.10 22.85Q4 23.20 4 23.55Q4 23.55 4 23.60Q4.10 23.75 3.95 23.85Q3.95 23.95 3.95 24Q3.95 24 3.95 24Q3.90 24.40 3.90 24.75Q3.90 24.75 3.90 24.80Q4 24.90 3.90 25Q3.90 25.85 3.98 26.65Q4.05 27.45 4.10 28.25Q4.15 28.50 4.17 28.70Q4.20 28.90 4.20 29.10Q4.25 29.70 4.28 30.30Q4.30 30.90 4.35 31.50Q4.35 32.50 4.43 33.50Q4.50 34.50 4.75 35.45Q5.25 37.05 5.83 38.95Q6.40 40.85 7.60 42.05Q8.80 43.20 10.33 44.20Q11.85 45.20 13.35 45.95Q13.70 46.05 14.05 46.20Q14.10 46.20 14.10 46.20Q14.55 46.35 15.05 46.40M21.75 37.90Q21.75 37.90 21.60 37.90Q21.50 37.90 21.45 37.90L20.60 37.55L20.20 37.75Q20 37.85 19.90 37.65Q19.85 37.45 20 37.35Q19.20 37.30 18.47 37.08Q17.75 36.85 17.20 36.20Q16.50 35.40 16.43 34.38Q16.35 33.35 16.40 32.40Q16.45 32.30 16.45 32.25Q16.55 30.80 16.55 29.30Q16.55 27.80 16.60 26.20Q16.60 25.50 16.60 24.82Q16.60 24.15 16.60 23.45Q16.60 23.30 16.55 23.05Q16.50 22.85 16.50 22.63Q16.50 22.40 16.65 22.20Q16.75 21.95 17.10 21.70Q17.15 21.60 17.25 21.55L17.65 21.40L18.05 21.20Q18.05 21.15 18.10 21.15Q18.10 21.15 18.10 21.15L18.50 21.05L18.90 20.95Q19.05 20.90 19.15 21Q19.45 20.95 19.75 20.95L20.05 20.80Q20.20 20.70 20.35 20.90Q20.60 20.90 20.95 20.85L21.25 20.75Q21.45 20.65 21.55 20.85Q21.55 20.85 21.55 20.85Q21.60 20.85 21.80 20.85Q21.90 20.80 22.05 20.77Q22.20 20.75 22.50 20.70Q22.70 20.65 22.80 20.85Q22.80 20.90 22.80 20.90Q23.10 21.05 23.27 21.32Q23.45 21.60 23.60 21.90Q24 22.60 24.15 23.40Q24.30 24.20 24.40 25Q24.50 25.95 24.50 26.95Q24.50 27.95 24.45 28.95Q24.45 29 24.50 29Q24.55 29.20 24.40 29.30Q24.40 29.50 24.40 29.80Q24.45 29.80 24.45 29.90Q24.50 30.05 24.35 30.15Q24.35 30.15 24.35 30.18Q24.35 30.20 24.35 30.20Q24.35 30.45 24.35 30.65Q24.40 30.65 24.40 30.75Q24.50 30.90 24.30 31Q24.30 31.25 24.30 31.45Q24.35 31.50 24.40 31.60Q24.50 31.80 24.30 31.85Q24.30 32.05 24.30 32.35Q24.35 32.35 24.35 32.45Q24.45 32.60 24.30 32.70Q24.30 33.05 24.30 33.25Q24.30 33.25 24.30 33.30Q24.40 33.45 24.30 33.55Q24.25 34 24.25 34.35Q24.25 34.45 24.20 34.50Q24.15 35.10 24 35.60Q23.80 36.20 23.50 36.65Q23.20 37.10 22.70 37.45Q22.50 37.60 22.25 37.67Q22 37.75 21.75 37.90M20.65 36.30L21.30 36.10L22.10 35.90L22.70 35.60Q22.80 35.45 22.85 35.25Q22.90 35.10 22.90 34.95L22.35 35.15L21.60 35.45L20.90 35.75Q20.70 35.80 20.60 35.60Q20.55 35.40 20.75 35.30L21.45 35.05L22.15 34.70Q22.15 34.70 22.20 34.70Q22.20 34.70 22.20 34.70L23 34.50Q23.05 34.30 23.05 34.10L22.70 34.25L22 34.60L21.20 34.90Q21 35 20.90 34.80Q20.80 34.60 21.05 34.50L21.80 34.15L22.50 33.85Q22.50 33.85 22.55 33.85Q22.55 33.85 22.55 33.85L23.10 33.65Q23.10 33.40 23.10 33.15L22.65 33.35L21.75 33.70L20.90 33.95Q20.65 34.05 20.60 33.80Q20.50 33.60 20.75 33.55L21.60 33.25L22.45 32.95L23.10 32.65Q23.10 32.65 23.10 32.63Q23.10 32.60 23.10 32.60Q23.10 32.50 23.10 32.45L22.65 32.65L21.90 33L21 33.30Q20.80 33.40 20.70 33.20Q20.65 32.95 20.85 32.90L21.70 32.55L22.50 32.25L23.10 31.95Q23.10 31.75 23.10 31.55L22.65 31.75Q22.65 31.75 22.65 31.75L21.80 32L21 32.40Q20.80 32.50 20.70 32.30Q20.60 32.10 20.80 32L21.65 31.60Q21.65 31.60 21.65 31.60Q21.65 31.60 21.65 31.60L22.50 31.30L23.10 31.05Q23.10 30.80 23.15 30.50L22.60 30.70L21.85 31L21.15 31.40Q20.95 31.50 20.85 31.30Q20.75 31.10 20.95 31L21.65 30.60Q21.65 30.60 21.65 30.60Q21.70 30.60 21.70 30.60L22.45 30.25Q22.45 30.25 22.45 30.25Q22.50 30.25 22.50 30.25L23.15 30.05Q23.20 30 23.20 29.95Q23.20 29.90 23.20 29.85L22.70 30.05Q22.70 30.05 22.70 30.10Q22.70 30.10 22.70 30.10L22 30.35L21.20 30.75Q21 30.85 20.90 30.65Q20.80 30.45 21 30.35L21.80 29.95Q21.80 29.95 21.80 29.95Q21.80 29.95 21.80 29.95L22.55 29.65L23.20 29.35Q23.25 28.90 23.25 28.55L22.80 28.70L22.10 28.90L21.20 29.30Q21 29.40 20.90 29.15Q20.85 28.95 21.05 28.90L21.90 28.50Q21.90 28.50 21.95 28.50Q21.95 28.50 21.95 28.50L22.65 28.25L23.30 28.05Q23.30 27.80 23.30 27.50L22.60 27.75L21.90 27.95L21.15 28.35Q20.90 28.45 20.80 28.25Q20.70 28.05 20.95 27.95L21.70 27.55Q21.70 27.55 21.70 27.55Q21.75 27.55 21.75 27.55L22.45 27.30L23.30 27.05Q23.30 26.65 23.30 26.35L22.70 26.55L21.80 26.75L21.05 27.15Q20.85 27.25 20.75 27.05Q20.65 26.85 20.85 26.75L21.65 26.35Q21.65 26.35 21.65 26.35Q21.70 26.30 21.70 26.30L22.55 26.10L23.25 25.85Q23.25 25.60 23.20 25.35L22.50 25.55L21.80 25.95L21 26.35Q20.80 26.45 20.70 26.25Q20.60 26 20.80 25.90L21.60 25.55L22.30 25.15Q22.30 25.15 22.35 25.15Q22.35 25.15 22.35 25.15L23.15 24.90Q23.15 24.50 23.10 24.25L22.45 24.50Q22.45 24.50 22.45 24.50Q22.45 24.55 22.45 24.55L21.65 24.80L20.75 25.15Q20.55 25.20 20.45 25Q20.40 24.80 20.60 24.70L21.50 24.40L22.30 24.10L23 23.80Q23 23.80 23 23.75Q22.95 23.45 22.85 23.30Q22.85 23.30 22.85 23.30Q22.85 23.30 22.85 23.30L22.10 23.55L21.35 23.90L20.60 24.25Q20.40 24.35 20.30 24.15Q20.20 23.95 20.40 23.85L21.15 23.45Q21.15 23.45 21.15 23.45L21.95 23.15Q21.95 23.15 21.95 23.15Q21.95 23.10 21.95 23.10L22.75 22.85Q22.65 22.65 22.55 22.50Q22.55 22.45 22.45 22.30L21.85 22.60Q21.85 22.60 21.80 22.60Q21.80 22.60 21.80 22.60L20.95 23L20.10 23.40Q19.90 23.50 19.80 23.25Q19.75 23.05 19.95 23L20.75 22.60L21.65 22.20L22.05 22Q21.95 22 21.70 22.05Q21.45 22.05 21.40 22.05Q21 22.05 20.60 22.07Q20.20 22.10 19.75 22.15Q19.65 22.20 19.60 22.15Q19.40 22.20 19.20 22.25Q19.10 22.25 18.93 22.32Q18.75 22.40 18.40 22.50Q18.30 22.55 18.20 22.55Q17.70 22.70 17.65 22.80Q17.65 22.85 17.70 23.10Q17.80 23.35 17.80 23.45Q17.80 24.15 17.80 24.85Q17.80 25.55 17.80 26.40Q17.75 27.85 17.75 29.35Q17.75 30.85 17.65 32.30Q17.60 32.40 17.60 32.65Q17.55 33.35 17.60 34.13Q17.65 34.90 18.10 35.45Q18.50 35.90 19.07 36.02Q19.65 36.15 20.25 36.20Q20.25 36.20 20.35 36.20Q20.45 36.25 20.65 36.30M21.60 36.65L21.85 36.55Q21.95 36.50 22 36.45Q22.10 36.40 22.20 36.35L21.60 36.65M13.10 47.10Q13.05 47.10 13.05 47.10L12.55 47.25L11.85 47.60L12.40 47.40L13.10 47.10Z"/></g></g></svg>